<svg width="1000" height="500" viewBox="0 0 1000 500" fill="none" xmlns="http://www.w3.org/2000/svg">
<path fill-rule="evenodd" clip-rule="evenodd" d="M237.103 1.94292C225.901 5.52325 216.695 12.9222 210.948 22.9639C205.134 33.1238 205.097 33.7323 205.078 120.502L205.061 199.44L202.206 202.295L199.35 205.15L120.389 205.166C33.7041 205.185 32.9714 205.229 22.915 210.981C-7.63833 228.457 -7.63833 271.693 22.915 289.168C32.9714 294.921 33.7041 294.965 120.389 294.983L199.35 295L202.206 297.855L205.061 300.709L205.078 379.647C205.097 466.306 205.141 467.038 210.895 477.092C228.376 507.636 271.624 507.636 289.105 477.092C294.859 467.038 294.903 466.306 294.922 379.647L294.938 300.709L297.794 297.855L300.65 295L379.611 294.983C466.296 294.965 467.029 294.921 477.085 289.168C507.638 271.693 507.638 228.457 477.085 210.981C467.029 205.229 466.296 205.185 379.611 205.166L300.65 205.15L297.794 202.295L294.938 199.44L294.922 120.502C294.903 33.8436 294.859 33.1111 289.105 23.0577C278.634 4.75953 256.457 -4.24404 237.103 1.94292Z" fill="black"/>
<path fill-rule="evenodd" clip-rule="evenodd" d="M737.103 1.94292C725.901 5.52325 716.695 12.9222 710.948 22.9639C705.134 33.1238 705.097 33.7323 705.078 120.502L705.061 199.44L702.206 202.295L699.35 205.15L620.389 205.166C533.704 205.185 532.971 205.229 522.915 210.981C492.362 228.457 492.362 271.693 522.915 289.168C532.971 294.921 533.704 294.965 620.389 294.983L699.35 295L702.206 297.855L705.061 300.709L705.078 379.647C705.097 466.306 705.141 467.038 710.895 477.092C728.376 507.636 771.624 507.636 789.105 477.092C794.859 467.038 794.903 466.306 794.922 379.647L794.938 300.709L797.794 297.855L800.65 295L879.611 294.983C966.296 294.965 967.029 294.921 977.085 289.168C1007.64 271.693 1007.64 228.457 977.085 210.981C967.029 205.229 966.296 205.185 879.611 205.166L800.65 205.15L797.794 202.295L794.938 199.44L794.922 120.502C794.903 33.8436 794.859 33.1111 789.105 23.0577C778.634 4.75953 756.457 -4.24404 737.103 1.94292Z" fill="#0059D9"/>
</svg>
